<?xml version="1.0" encoding="UTF-8" standalone="no"?>
<svg xmlns:dc="http://purl.org/dc/elements/1.1/"
     xmlns:cc="http://creativecommons.org/ns#"
     xmlns:rdf="http://www.w3.org/1999/02/22-rdf-syntax-ns#"
     xmlns:svg="http://www.w3.org/2000/svg"
     xmlns="http://www.w3.org/2000/svg"
     viewBox="0 0 187.66467 119.99147"
     height="auto"
     width="auto"
     xml:space="preserve"
     id="svg2"
     version="1.1">
  <metadata id="metadata8">
    <rdf:RDF>
      <cc:Work rdf:about="">
        <dc:format>image/svg+xml</dc:format>
        <dc:type rdf:resource="http://purl.org/dc/dcmitype/StillImage" />
      </cc:Work>
    </rdf:RDF>
  </metadata>
  <defs id="defs6">
    <clipPath id="clipPath14" clipPathUnits="userSpaceOnUse">
      <path id="path12" d="M -1,-1 H 139.7485 V 88.9936 H -1 Z" />
    </clipPath>
  </defs>
  <g clip-path="url(#clipPath14)" transform="matrix(1.3333333,0,0,-1.3333333,1.3333333,118.65813)" id="g10">
    <g id="g16">
      <path id="path18" style="fill:#225e8e;fill-opacity:1;fill-rule:nonzero;stroke:none"
            d="M 36.0828,34.5713 54.7333,34.581 45.3762,62.5538 44.6074,60.4604 Z M 90.8082,3.642 c 0.0839,-0.252 0.1269,-0.5471 0.1269,-0.8771 0,-0.752 -0.276,-1.4068 -0.8189,-1.946 C 89.5652,0.269 88.9291,0 88.1711,0 H 68.887 C 67.4722,0 66.4172,0.3379 65.751,1.004 65.0752,1.6809 64.6231,2.2969 64.368,2.8879 L 60.4885,13.4053 30.3143,13.4002 26.4362,2.8891 C 26.189,2.3029 25.759,1.6869 25.1212,1.004 24.4942,0.339 23.417,0 21.922,0 H 2.6382 C 1.889,0 1.256,0.2761 0.756,0.8189 0.2551,1.3601 0,2.0149 0,2.7649 0,3.094 0.0431,3.39 0.127,3.642 c 9.5179,26.7168 19.0531,53.4279 28.5525,80.1513 0.9323,2.478 2.4721,3.994 5.2081,3.994 h 22.9159 c 1.578,0 2.8009,-0.421 3.6371,-1.2521 0.8288,-0.83 1.2739,-1.7152 1.6299,-2.6331 z" />
      <path id="path20" style="fill:#96b4d8;fill-opacity:1;fill-rule:nonzero;stroke:none"
            d="M 99.2914,57.7902 99.2866,60.6841 82.1441,36.8853 99.2937,36.896 Z m 25.1813,-19.7733 11.016,0.0062 c 0.9998,0 1.8028,-0.3161 2.3828,-0.94 0.5822,-0.6262 0.877,-1.4062 0.877,-2.319 V 19.2339 c 0,-0.9193 -0.3172,-1.701 -0.9402,-2.3252 -0.6299,-0.6239 -1.41,-0.94 -2.3199,-0.94 l -11.0225,3e-4 0.006,-12.3928 c 0,-0.2721 -0.0289,-0.536 -0.087,-0.7841 v -0.0099 0.006 l -0.001,5e-4 -0.1483,-0.4702 c -0.153,-0.3992 -0.3909,-0.7541 -0.7038,-1.0611 -0.6231,-0.6239 -1.4051,-0.9411 -2.3241,-0.9411 h -19.41 c -0.915,0 -1.696,0.3172 -2.319,0.9411 -0.6239,0.62 -0.9411,1.3989 -0.9411,2.3191 l 3e-4,12.399 -38.1918,-0.0065 c -0.915,0 -1.6951,0.316 -2.319,0.9399 -0.6239,0.6242 -0.9411,1.4052 -0.9411,2.3242 l -3e-4,14.904 c 0,0.464 0.0371,0.8869 0.112,1.2948 0.0485,0.1948 0.0921,0.4003 0.1519,0.5911 l 0.0029,0.0096 c 0.212,0.6423 0.6939,1.4681 1.1108,1.9877 l 35.9422,47.8403 c 1.167,1.4159 2.7281,2.133 4.6401,2.133 h 22.1621 c 0.9158,0 1.6968,-0.318 2.3249,-0.945 l 0.3379,-0.4391 c 0.1063,-0.1624 0.1925,-0.3011 0.2537,-0.4142 l 0.002,-0.0042 0.007,-0.0136 8e-4,-0.0012 c 0.2177,-0.4002 0.3376,-0.9569 0.3376,-1.447 l 6e-4,-46.7124 z" />
    </g>
  </g>
</svg>